<svg xmlns="http://www.w3.org/2000/svg" viewBox="0 0 180 180"><path d="M113.0 15.0 Q122.0 16.0 123.5 17.5 Q125.0 19.0 125.0 22.5 Q125.0 26.0 112.0 39.0 Q99.0 52.0 97.5 56.0 Q96.0 60.0 97.0 66.0 Q98.0 72.0 102.0 76.0 Q106.0 80.0 109.0 81.0 Q112.0 82.0 117.0 81.5 Q122.0 81.0 124.5 79.5 Q127.0 78.0 139.5 65.5 Q152.0 53.0 154.5 52.5 Q157.0 52.0 159.5 54.0 Q162.0 56.0 162.5 68.0 Q163.0 80.0 159.5 89.5 Q156.0 99.0 150.0 106.0 Q144.0 113.0 135.5 118.0 Q127.0 123.0 120.5 124.5 Q114.0 126.0 107.5 126.0 Q101.0 126.0 95.5 124.5 Q90.0 123.0 72.0 141.0 Q54.0 159.0 51.5 160.5 Q49.0 162.0 41.0 162.5 Q33.0 163.0 29.5 161.5 Q26.0 160.0 23.0 157.5 Q20.0 155.0 17.5 150.5 Q15.0 146.0 15.0 139.0 Q15.0 132.0 16.5 128.5 Q18.0 125.0 36.0 107.0 Q54.0 89.0 53.0 83.5 Q52.0 78.0 52.0 70.0 Q52.0 62.0 55.5 52.0 Q59.0 42.0 61.0 39.0 Q63.0 36.0 70.0 29.5 Q77.0 23.0 82.0 20.5 Q87.0 18.0 95.5 16.0 Q104.0 14.0 113.0 15.0 Z" fill="#BABABA"></path><circle cx="41" cy="138.2" r="11.3" fill="#000000"></circle></svg>